<svg width="60" height="60" viewBox="0 0 60 60" fill="none" xmlns="http://www.w3.org/2000/svg">
<path d="M58.632 13.62L51.504 3.324C50.7921 2.29933 49.8431 1.46192 48.7378 0.883152C47.6325 0.304379 46.4037 0.00138913 45.156 0L14.844 0C13.5963 0.00138913 12.3675 0.304379 11.2622 0.883152C10.1569 1.46192 9.20785 2.29933 8.496 3.324L1.368 13.62C0.479067 14.9078 0.00203335 16.4352 0 18L0 52.272C0 54.3216 0.814198 56.2872 2.26348 57.7365C3.71276 59.1858 5.67841 60 7.728 60H52.272C54.3216 60 56.2872 59.1858 57.7365 57.7365C59.1858 56.2872 60 54.3216 60 52.272V18C59.998 16.4352 59.5209 14.9078 58.632 13.62ZM45.156 6C45.4347 5.9997 45.7093 6.06729 45.956 6.19692C46.2027 6.32655 46.4141 6.51432 46.572 6.744L51.036 13.2H33.036V6H45.156ZM13.428 6.744C13.5859 6.51432 13.7973 6.32655 14.044 6.19692C14.2907 6.06729 14.5653 5.9997 14.844 6H27V13.2H9L13.428 6.744ZM54 52.272C54.0016 52.4994 53.958 52.7248 53.8717 52.9352C53.7854 53.1455 53.6582 53.3367 53.4974 53.4974C53.3367 53.6582 53.1455 53.7854 52.9352 53.8717C52.7248 53.958 52.4994 54.0016 52.272 54H7.728C7.50063 54.0016 7.27521 53.958 7.06484 53.8717C6.85447 53.7854 6.66334 53.6582 6.50256 53.4974C6.34178 53.3367 6.21456 53.1455 6.12829 52.9352C6.04201 52.7248 5.9984 52.4994 6 52.272V20.7C6 20.3022 6.15804 19.9206 6.43934 19.6393C6.72064 19.358 7.10218 19.2 7.5 19.2H52.5C52.8978 19.2 53.2794 19.358 53.5607 19.6393C53.842 19.9206 54 20.3022 54 20.7V52.272Z" fill="white"/>
<path d="M39 25.2002H21C19.3431 25.2002 18 26.5433 18 28.2002C18 29.857 19.3431 31.2002 21 31.2002H39C40.6569 31.2002 42 29.857 42 28.2002C42 26.5433 40.6569 25.2002 39 25.2002Z" fill="#00C569"/>
</svg>
